<?xml version="1.0" encoding="UTF-8"?>
<svg version="1.1" xmlns="http://www.w3.org/2000/svg" width="2000" height="2000">
<path d="M0 0 C1.50285553 -0.01058945 1.50285553 -0.01058945 3.03607178 -0.02139282 C40.8048511 -0.22709876 76.02589197 3.27154571 112.12109375 15.203125 C113.19544678 15.55044678 113.19544678 15.55044678 114.29150391 15.90478516 C146.49380118 26.37809706 177.7831466 42.91776363 204.12109375 64.203125 C205.52681641 65.32074219 205.52681641 65.32074219 206.9609375 66.4609375 C213.7898422 71.89598353 213.7898422 71.89598353 216.58984375 74.4921875 C218.93336307 76.41870905 218.93336307 76.41870905 221.44921875 76.2109375 C225.11218122 74.82929376 228.46050134 72.97907424 231.87109375 71.078125 C240.9410524 66.14702762 250.26471078 61.90930219 259.68359375 57.703125 C273.71002357 51.42590178 287.38078099 44.8728002 300.12109375 36.203125 C300.78109375 36.533125 301.44109375 36.863125 302.12109375 37.203125 C296.2009435 42.72768918 290.10836666 47.88017532 283.71166992 52.83544922 C279.85366854 55.827705 276.06169102 58.88548643 272.29956055 61.99731445 C264.22585098 68.6612187 255.86940627 74.7722975 247.2578125 80.71923828 C244.42021204 82.6898662 241.60853862 84.69593933 238.79516602 86.70092773 C220.3304218 99.83696325 201.33204404 112.16288394 181.84521484 123.7265625 C169.9426604 130.79274657 158.41614836 138.20425077 147.12109375 146.203125 C145.88160576 147.07305253 144.64202736 147.94285126 143.40234375 148.8125 C126.11138505 161.00290217 109.26862879 173.84866934 93.19140625 187.6015625 C90.4437533 189.94570201 87.63309147 192.20195816 84.80859375 194.453125 C77.92511989 200.05781127 71.55730528 206.20649064 65.12353516 212.31396484 C63.28530837 214.04820026 61.43297119 215.7647399 59.5703125 217.47265625 C51.56788413 224.82161999 43.81202087 232.40563843 36.12109375 240.078125 C35.62600311 240.57062744 35.13091248 241.06312988 34.62081909 241.57055664 C29.46131101 246.70873071 24.39904626 251.88772781 19.65917969 257.41992188 C17.26748756 260.19276621 14.75081281 262.8453012 12.24609375 265.515625 C7.78282668 270.31308128 3.55134946 275.23474873 -0.55078125 280.34765625 C-2.69295983 282.97505985 -4.8901622 285.53692037 -7.1171875 288.09179688 C-12.67954101 294.48059826 -17.91690137 301.05448556 -23.02026367 307.81494141 C-26.57424165 312.51928175 -30.2207614 317.12995923 -33.94140625 321.703125 C-39.81013828 328.95455269 -45.15682191 336.53148695 -50.47363281 344.19238281 C-52.17865154 346.63201697 -53.91815593 349.04527142 -55.66259766 351.45678711 C-81.06978594 386.63008651 -102.78499884 424.37613921 -123.86376953 462.24462891 C-126.37180746 466.74901742 -128.88269633 471.24528537 -131.51953125 475.67578125 C-136.19475458 483.58591546 -139.71399571 491.42449608 -142.58569336 500.17529297 C-143.27068216 502.21301221 -144.06599902 504.21297646 -144.87890625 506.203125 C-148.85727232 507.52924702 -150.245764 506.49584641 -154.078125 504.89453125 C-155.28662109 504.39501953 -156.49511719 503.89550781 -157.74023438 503.38085938 C-159.01571129 502.84265236 -160.29110082 502.30423821 -161.56640625 501.765625 C-162.85315358 501.2302488 -164.1402592 500.69573288 -165.42773438 500.16210938 C-168.58175907 498.85088563 -171.73183056 497.53092102 -174.87890625 496.203125 C-175.16765625 497.13125 -175.45640625 498.059375 -175.75390625 499.015625 C-176.87890625 502.203125 -176.87890625 502.203125 -178.87890625 505.203125 C-177.80539917 505.38669556 -177.80539917 505.38669556 -176.71020508 505.57397461 C-173.82300201 506.21554763 -171.30752238 507.13627269 -168.578125 508.26953125 C-167.11342773 508.8737793 -167.11342773 508.8737793 -165.61914062 509.49023438 C-164.61173828 509.91111328 -163.60433594 510.33199219 -162.56640625 510.765625 C-161.02629883 511.40274414 -161.02629883 511.40274414 -159.45507812 512.05273438 C-156.92798284 513.09883428 -154.40269731 514.14908416 -151.87890625 515.203125 C-152.60188059 519.14318998 -153.73387034 522.38163833 -155.44140625 526.015625 C-155.89644531 526.99144531 -156.35148438 527.96726562 -156.8203125 528.97265625 C-157.34431641 530.07673828 -157.34431641 530.07673828 -157.87890625 531.203125 C-164.52059236 529.08667757 -170.98352408 526.6357342 -177.44140625 524.015625 C-178.35470703 523.64759766 -179.26800781 523.27957031 -180.20898438 522.90039062 C-182.43326889 522.00368954 -184.6565407 521.10456902 -186.87890625 520.203125 C-188.36390625 522.678125 -188.36390625 522.678125 -189.87890625 525.203125 C-189.36585938 525.33847656 -188.8528125 525.47382812 -188.32421875 525.61328125 C-179.27192149 528.15828738 -170.60634704 531.73306412 -161.87890625 535.203125 C-162.2108363 539.29692896 -163.38671117 542.40356468 -165.17578125 546.03515625 C-167.35061542 550.63762184 -168.77672176 555.21670642 -169.95703125 560.15234375 C-174.16840735 577.4322992 -177.77173107 589.76895557 -192.78662109 600.63867188 C-196.09852447 603.11506357 -199.0215206 605.97161927 -202.00390625 608.828125 C-206.20827021 612.72500947 -210.48331554 616.52309557 -214.87890625 620.203125 C-215.53890625 619.873125 -216.19890625 619.543125 -216.87890625 619.203125 C-213.24890625 611.613125 -209.61890625 604.023125 -205.87890625 596.203125 C-207.52890625 595.873125 -209.17890625 595.543125 -210.87890625 595.203125 C-211.10578125 596.37875 -211.33265625 597.554375 -211.56640625 598.765625 C-213.09901461 605.74626456 -215.55016525 612.45688675 -217.87890625 619.203125 C-218.53890625 618.873125 -219.19890625 618.543125 -219.87890625 618.203125 C-220.25561523 615.68676758 -220.25561523 615.68676758 -220.4375 612.28515625 C-220.54360596 610.37404053 -220.54360596 610.37404053 -220.65185547 608.42431641 C-220.68688171 607.7371051 -220.72190796 607.0498938 -220.75799561 606.34185791 C-220.87971692 604.18878545 -221.0406746 602.04179108 -221.21142578 599.89208984 C-222.95822818 576.99783197 -221.89704358 561.56908714 -206.68823242 543.46264648 C-204.78968335 541.09170171 -203.15656341 538.96649376 -201.87890625 536.203125 C-202.83114679 532.77530209 -205.18082691 530.69119766 -207.6953125 528.26171875 C-208.45489258 527.51929932 -209.21447266 526.77687988 -209.99707031 526.01196289 C-211.2070166 524.83815063 -211.2070166 524.83815063 -212.44140625 523.640625 C-219.0648239 517.10210634 -225.28407724 510.65318377 -230.87890625 503.203125 C-231.37777344 502.55359863 -231.87664062 501.90407227 -232.390625 501.23486328 C-267.13012948 455.95811399 -289.91096184 402.19000044 -295.87890625 345.203125 C-295.97171875 344.39343262 -296.06453125 343.58374023 -296.16015625 342.74951172 C-297.23534404 332.06099306 -297.12270976 321.30929668 -297.12890625 310.578125 C-297.12958099 309.52922089 -297.13025574 308.48031677 -297.13095093 307.39962769 C-297.11468293 291.47355778 -296.66339236 275.92392608 -293.87890625 260.203125 C-293.62149658 258.72126709 -293.62149658 258.72126709 -293.35888672 257.20947266 C-287.57112295 224.908682 -276.76514845 194.38175662 -261.87890625 165.203125 C-261.45883301 164.37828613 -261.03875977 163.55344727 -260.60595703 162.70361328 C-241.98476732 126.62839569 -213.30816771 91.72525172 -180.87890625 67.203125 C-179.47125 66.07003906 -179.47125 66.07003906 -178.03515625 64.9140625 C-163.10291488 53.03614323 -146.7807136 43.01317955 -129.87890625 34.203125 C-129.00830566 33.74083496 -128.13770508 33.27854492 -127.24072266 32.80224609 C-88.81471782 12.5869142 -43.48748113 0.20523153 0 0 Z M-208.31640625 574.828125 C-210.26506685 577.79008912 -210.80785772 579.65069866 -210.87890625 583.203125 C-209.31506691 587.5137036 -209.31506691 587.5137036 -205.87890625 590.203125 C-200.22149424 590.82872223 -200.22149424 590.82872223 -195.44140625 588.328125 C-192.84417032 584.79588413 -192.36083175 582.60675823 -192.87890625 578.203125 C-194.87524014 575.33339504 -196.35120508 573.55101735 -199.8515625 572.75390625 C-203.25587143 572.56937362 -205.47714932 572.93528704 -208.31640625 574.828125 Z " fill="#66A2E2" transform="translate(444.87890625,687.796875)"/>
<path d="M0 0 C4.07902988 1.51075181 6.80219716 4.32053793 9 8 C9.69990858 10.77916296 9.71436344 13.39579548 9.625 16.25 C9.61533203 16.99564209 9.60566406 17.74128418 9.59570312 18.50952148 C9.34887443 24.8345068 7.60790136 29.75565767 4 35 C5.65 34.67 7.3 34.34 9 34 C11.07138113 51.76239958 11.07138113 51.76239958 7.75634766 56.94384766 C4.33219755 60.42511982 0.26544232 62.69183648 -4 65 C-4.66 65.66 -5.32 66.32 -6 67 C-0.06 66.01 -0.06 66.01 6 65 C4.7588348 72.44699122 2.71617494 79.29185616 -3.4375 84.125 C-7.71630831 87.00185029 -12.26726952 89.44873702 -16.76831055 91.95825195 C-22.89829223 95.41480915 -29.0480114 99.0720171 -33 105 C-32.4652002 104.84853516 -31.93040039 104.69707031 -31.37939453 104.54101562 C-28.96201257 103.85799095 -26.54352943 103.17894984 -24.125 102.5 C-23.28324219 102.26152344 -22.44148438 102.02304687 -21.57421875 101.77734375 C-20.76855469 101.55175781 -19.96289062 101.32617188 -19.1328125 101.09375 C-18.38918457 100.88427734 -17.64555664 100.67480469 -16.87939453 100.45898438 C-15 100 -15 100 -13 100 C-15.72302337 123.11791273 -31.97749598 145.65405854 -49.609375 160.01953125 C-52.67908085 162.43080374 -55.83550233 164.71477128 -59 167 C-62.54685935 169.54371415 -62.54685935 169.54371415 -65 173 C-63.02 172.67 -61.04 172.34 -59 172 C-61.43764094 174.77175972 -63.9921088 176.15311723 -67.3046875 177.7421875 C-68.35793213 178.24911133 -69.41117676 178.75603516 -70.49633789 179.27832031 C-71.61129639 179.80522461 -72.72625488 180.33212891 -73.875 180.875 C-75.00220459 181.4122168 -76.12940918 181.94943359 -77.29077148 182.50292969 C-84.74401332 186.02285955 -92.19428372 189.33084851 -100 192 C-98.69804688 191.7834375 -97.39609375 191.566875 -96.0546875 191.34375 C-94.32816544 191.06225184 -92.60160066 190.78101565 -90.875 190.5 C-90.0190625 190.35691406 -89.163125 190.21382812 -88.28125 190.06640625 C-83.80328495 189.34304266 -79.55436565 188.82081184 -75 189 C-90.7260928 218.1981123 -138.59873574 232.52460221 -167.3125 242.25 C-169.59990511 243.03299074 -171.88701596 243.81684167 -174.17382812 244.6015625 C-178.53893419 246.09860143 -182.90897307 247.5796612 -187.28320312 249.04980469 C-190.63969234 250.18182559 -193.97143499 251.34739572 -197.27929688 252.61425781 C-207.17747238 256.29095021 -216.4349972 256.9352893 -226.875 257.25 C-229.32102343 257.34411514 -231.76672426 257.44438138 -234.21243286 257.54632568 C-235.71600895 257.60685975 -237.21982179 257.66190436 -238.72384644 257.71002197 C-243.85212259 257.88668657 -248.90783261 258.37220491 -254 259 C-254 259.66 -254 260.32 -254 261 C-252.23227781 261.49051977 -250.46055927 261.96663674 -248.6875 262.4375 C-247.20830078 262.83775391 -247.20830078 262.83775391 -245.69921875 263.24609375 C-217.41667578 269.01011782 -185.16015312 264.5849638 -157 260 C-160.37857144 279.1716174 -180.29288056 299.4043695 -195.64379883 310.23950195 C-196.25634521 310.65546631 -196.8688916 311.07143066 -197.5 311.5 C-198.04358154 311.87278076 -198.58716309 312.24556152 -199.1472168 312.62963867 C-211.04856519 320.26986247 -225.41562126 324.51761286 -238.61083984 329.38623047 C-241.60133072 330.49125391 -244.58782064 331.60662694 -247.57421875 332.72265625 C-264.67696462 339.0761887 -281.57678733 345.09550612 -299.75 347.375 C-300.94753906 347.53871094 -302.14507812 347.70242188 -303.37890625 347.87109375 C-306.25102909 348.26170246 -309.12414794 348.63808188 -312 349 C-309.23805905 351.76194095 -301.71394053 350.79258288 -298 351 C-296.93136719 351.07863281 -295.86273438 351.15726563 -294.76171875 351.23828125 C-279.81990981 351.86458462 -265.03720476 347.17460739 -251.2409668 341.79248047 C-246.29936307 339.90021231 -246.29936307 339.90021231 -243 341 C-251.0432984 344.84359145 -259.1168984 348.61458026 -267.24609375 352.2734375 C-292.71507594 363.74221583 -318.0416847 375.52425293 -342.6875 388.6875 C-343.72575928 389.23929932 -344.76401855 389.79109863 -345.83374023 390.35961914 C-356.28122508 395.38931217 -356.28122508 395.38931217 -363 404 C-346.72815998 402.85119781 -330.7339883 400.58268738 -315.8125 393.6015625 C-314 393 -314 393 -311 394 C-317.72987417 400.36913156 -324.69664635 405.8529641 -332.4375 410.9375 C-333.48446045 411.6277124 -334.5314209 412.3179248 -335.61010742 413.02905273 C-341.88455001 417.11037507 -348.21532408 421.02398261 -354.8125 424.5625 C-355.46597412 424.91884521 -356.11944824 425.27519043 -356.79272461 425.64233398 C-374.02850208 434.50886526 -393.50621368 439.44237587 -411.92700195 445.17138672 C-415.20497464 446.19290005 -418.47955538 447.2247585 -421.75390625 448.2578125 C-422.73637833 448.56002716 -423.7188504 448.86224182 -424.73109436 449.1736145 C-435.10843141 452.21033377 -435.10843141 452.21033377 -444 458 C-445.4887186 458.08669432 -446.981445 458.10703494 -448.47265625 458.09765625 C-449.37177734 458.09443359 -450.27089844 458.09121094 -451.19726562 458.08789062 C-452.14279297 458.07951172 -453.08832031 458.07113281 -454.0625 458.0625 C-455.01189453 458.05798828 -455.96128906 458.05347656 -456.93945312 458.04882812 C-459.29303065 458.0370011 -461.64648477 458.02052025 -464 458 C-461.67420731 451.84641308 -458.38346828 446.23314475 -455.1875 440.5 C-454.68671432 439.59962509 -454.68671432 439.59962509 -454.17581177 438.68106079 C-448.29227929 428.12124703 -442.11215356 417.7759491 -435.63134766 407.57128906 C-433.94637939 404.91548454 -432.27525445 402.25130971 -430.60546875 399.5859375 C-419.33349664 381.65780156 -407.47609683 364.11303116 -395 347 C-394.20577637 345.90824463 -394.20577637 345.90824463 -393.39550781 344.79443359 C-386.21479162 334.93866774 -378.91661756 325.20215514 -371.31787109 315.66503906 C-369.97692305 313.97084387 -368.65249607 312.26488455 -367.33203125 310.5546875 C-361.98641225 303.64706838 -356.45047831 296.96005821 -350.69140625 290.39257812 C-347.58300793 286.84486936 -344.56429706 283.25319631 -341.625 279.5625 C-337.18078978 274.06484735 -332.36094702 268.95049123 -327.49072266 263.83227539 C-326.88276855 263.19281982 -326.27481445 262.55336426 -325.6484375 261.89453125 C-325.11395996 261.33612549 -324.57948242 260.77771973 -324.02880859 260.20239258 C-322.25672873 258.27869433 -320.55002802 256.31880429 -318.84399414 254.33691406 C-314.70814511 249.59666256 -310.30005321 245.15616489 -305.84765625 240.71484375 C-304.98869247 239.85492325 -304.1297287 238.99500275 -303.24473572 238.10902405 C-301.43822985 236.30184139 -299.63047538 234.49590608 -297.8215332 232.69116211 C-295.0706319 229.94561607 -292.32510779 227.19477454 -289.58007812 224.44335938 C-287.81542468 222.6793668 -286.05046103 220.9156845 -284.28515625 219.15234375 C-283.47345474 218.33861801 -282.66175323 217.52489227 -281.82545471 216.68650818 C-277.59411383 212.4723192 -273.29544334 208.41036782 -268.74705505 204.53907776 C-266.97115619 202.97458989 -265.32640934 201.33151905 -263.6875 199.625 C-260.05718925 195.93745462 -256.09581739 192.74388174 -252.06640625 189.50390625 C-249.36534605 187.29832716 -246.72704338 185.04306696 -244.09960938 182.75170898 C-236.41981751 176.0645063 -228.43104037 169.86970754 -220.296875 163.74804688 C-217.96917606 161.97654131 -215.67012764 160.17283288 -213.375 158.359375 C-193.64600351 142.87206311 -172.43375108 129.45854879 -151.04394531 116.39990234 C-143.47488982 111.74868885 -136.24863552 106.67817623 -129.05175781 101.47509766 C-126.29619567 99.49400455 -123.51545224 97.54983959 -120.73510742 95.60375977 C-110.69907352 88.57052393 -100.83403154 81.31205099 -91 74 C-90.30519531 73.484375 -89.61039063 72.96875 -88.89453125 72.4375 C-79.57999907 65.51916275 -70.38958527 58.45117416 -61.24609375 51.30859375 C-57.64073576 48.49353923 -54.0120912 45.71140021 -50.375 42.9375 C-32.93390641 29.53817117 -15.56963039 15.56963039 0 0 Z " fill="#F29F65" transform="translate(781,728)"/>
<path d="M0 0 C0.66 0.33 1.32 0.66 2 1 C-3.92015025 6.52456418 -10.01272709 11.67705032 -16.40942383 16.63232422 C-20.26742521 19.62458 -24.05940273 22.68236143 -27.8215332 25.79418945 C-35.89524277 32.4580937 -44.25168748 38.5691725 -52.86328125 44.51611328 C-55.70088171 46.4867412 -58.51255513 48.49281433 -61.32592773 50.49780273 C-79.79067195 63.63383825 -98.78904971 75.95975894 -118.27587891 87.5234375 C-130.17843335 94.58962157 -141.70494539 102.00112577 -153 110 C-154.23948799 110.86992753 -155.47906639 111.73972626 -156.71875 112.609375 C-174.0097087 124.79977717 -190.85246496 137.64554434 -206.9296875 151.3984375 C-209.67734045 153.74257701 -212.48800228 155.99883316 -215.3125 158.25 C-222.19597386 163.85468627 -228.56378847 170.00336564 -234.99755859 176.11083984 C-236.83578538 177.84507526 -238.68812256 179.5616149 -240.55078125 181.26953125 C-248.55320962 188.61849499 -256.30907288 196.20251343 -264 203.875 C-264.49509064 204.36750244 -264.99018127 204.86000488 -265.50027466 205.36743164 C-270.65978274 210.50560571 -275.72204749 215.68460281 -280.46191406 221.21679688 C-282.85360619 223.98964121 -285.37028094 226.6421762 -287.875 229.3125 C-292.33826707 234.10995628 -296.56974429 239.03162373 -300.671875 244.14453125 C-302.81405358 246.77193485 -305.01125595 249.33379537 -307.23828125 251.88867188 C-312.80063476 258.27747326 -318.03799512 264.85136056 -323.14135742 271.61181641 C-326.6953354 276.31615675 -330.34185515 280.92683423 -334.0625 285.5 C-339.93123203 292.75142769 -345.27791566 300.32836195 -350.59472656 307.98925781 C-352.29974529 310.42889197 -354.03924968 312.84214642 -355.78369141 315.25366211 C-381.19087969 350.42696151 -402.90609259 388.17301421 -423.98486328 426.04150391 C-426.49290121 430.54589242 -429.00379008 435.04216037 -431.640625 439.47265625 C-436.31584833 447.38279046 -439.83508946 455.22137108 -442.70678711 463.97216797 C-443.39177591 466.00988721 -444.18709277 468.00985146 -445 470 C-448.93235007 471.31078336 -450.26133205 470.35406385 -454.05859375 468.796875 C-455.84426758 468.06791016 -455.84426758 468.06791016 -457.66601562 467.32421875 C-458.59474487 466.9362915 -458.59474487 466.9362915 -459.54223633 466.54052734 C-461.42266115 465.75618939 -463.30918084 464.98834254 -465.19726562 464.22265625 C-475.27458984 460.06964324 -475.27458984 460.06964324 -479 457 C-478.62939453 456.48018555 -478.25878906 455.96037109 -477.87695312 455.42480469 C-469.98116135 444.2769518 -462.63119314 432.96489821 -455.9375 421.0625 C-455.60461975 420.47084045 -455.2717395 419.87918091 -454.92877197 419.26959229 C-454.2564483 418.07412907 -453.58414598 416.87865386 -452.91186523 415.6831665 C-452.41601929 414.80165924 -452.41601929 414.80165924 -451.91015625 413.90234375 C-451.58184814 413.3183783 -451.25354004 412.73441284 -450.9152832 412.13275146 C-442.2813656 396.82546819 -432.80473364 381.99905358 -423.32421875 367.20703125 C-421.30324541 364.05173849 -419.30085438 360.88729794 -417.33203125 357.69921875 C-410.35299088 346.42618602 -402.97470066 335.42829738 -395.5625 324.4375 C-395.04005707 323.66107147 -394.51761414 322.88464294 -393.9793396 322.08468628 C-386.70045743 311.27673559 -379.20908051 300.64617236 -371.53489685 290.11557007 C-369.36517499 287.12501169 -367.21779355 284.11868063 -365.07188416 281.11100769 C-358.49825759 271.91720757 -351.63856091 262.96932934 -344.64599609 254.09130859 C-343.08869722 252.11269362 -341.53735583 250.12958832 -339.98828125 248.14453125 C-331.61252266 237.42194871 -322.99912537 226.92490667 -314.11328125 216.62109375 C-312.03359977 214.20861103 -309.96965173 211.78398904 -307.91796875 209.34765625 C-302.5859368 203.03291445 -297.14731301 197.00243651 -291.2265625 191.22265625 C-289.23531091 189.23489808 -287.38679042 187.20236672 -285.5625 185.0625 C-279.2876721 177.75173353 -272.33240459 170.9742924 -265.00390625 164.7265625 C-262.74766614 162.78258954 -260.56636107 160.76676482 -258.375 158.75 C-253.93220464 154.74064809 -249.31592445 151.02854321 -244.58862305 147.3659668 C-240.73110258 144.37449395 -236.93993172 141.31708806 -233.1784668 138.20581055 C-225.10206657 131.53968548 -216.74271333 125.42788854 -208.12792969 119.47949219 C-206.02327825 118.01618474 -203.93517811 116.53213992 -201.8515625 115.0390625 C-184.15470585 102.36811314 -165.81835697 90.92258623 -147 80 C-144.89058524 78.76829726 -142.78121135 77.53652452 -140.671875 76.3046875 C-129.00642915 69.51470564 -117.25525448 62.93837156 -105.35400391 56.57128906 C-99.02714447 53.16329966 -92.88657903 49.56512333 -86.83966064 45.6844635 C-74.07750471 37.53291124 -60.73007316 30.78897566 -47 24.4375 C-38.0743496 20.28760521 -29.15490808 16.13105349 -20.3359375 11.7578125 C-19.70405518 11.44706284 -19.07217285 11.13631317 -18.42114258 10.81614685 C-12.86306291 8.03604328 -7.66834903 4.77860625 -2.4765625 1.37109375 C-1.25066406 0.69240234 -1.25066406 0.69240234 0 0 Z " fill="#F19E65" transform="translate(745,724)"/>
<path d="M0 0 C3.7955557 0.10130487 5.04553852 1.04225031 7.8671875 3.66015625 C8.88146351 4.78384445 9.88358252 5.91859337 10.875 7.0625 C11.40673828 7.65812744 11.93847656 8.25375488 12.48632812 8.86743164 C14.00152608 10.56925425 15.50202884 12.28302099 17 14 C17.94746094 15.06347656 17.94746094 15.06347656 18.9140625 16.1484375 C23.06483993 20.8308416 27.10126947 25.61562425 31.17138672 30.36816406 C42.55809623 43.69369384 42.55809623 43.69369384 54.25 56.75 C57.43716583 60.22457531 60.47876697 63.76657637 63.4375 67.4375 C67.09571015 71.97316443 70.94742965 76.2570117 74.91381836 80.51928711 C78.69367035 84.60527479 82.1948624 88.87733339 85.68359375 93.21484375 C89.01281422 97.21776819 92.55847373 100.99734579 96.12890625 104.78515625 C98.61218627 107.48760015 100.89388189 110.32999145 103.17944336 113.20092773 C103.89603622 114.10004379 104.61262909 114.99915985 105.35093689 115.92552185 C106.16722313 116.95238853 106.16722313 116.95238853 107 118 C106.99907821 117.39793511 106.99815641 116.79587023 106.99720669 116.17556095 C106.9751509 101.54607623 106.95858818 86.91659249 106.94818783 72.28709507 C106.943025 65.21246813 106.93598256 58.13785226 106.92456055 51.06323242 C106.91355319 44.24221122 106.90772382 37.42120156 106.90512276 30.60017204 C106.90326795 27.99133052 106.8996463 25.38248967 106.89426994 22.77365303 C106.88706357 19.13367448 106.88600889 15.49374425 106.88647461 11.85375977 C106.88287933 10.76331863 106.87928406 9.6728775 106.87557983 8.5493927 C106.8769545 7.56356201 106.87832916 6.57773132 106.87974548 5.56202698 C106.87882369 4.70015054 106.8779019 3.8382741 106.87695217 2.95028019 C107 1 107 1 108 0 C109.49738124 -0.0979057 110.99942892 -0.12974864 112.5 -0.125 C113.3146875 -0.12757813 114.129375 -0.13015625 114.96875 -0.1328125 C117 0 117 0 118 1 C118.09634459 2.77160318 118.12187481 4.54708408 118.12025452 6.32130432 C118.12231651 8.05247498 118.12231651 8.05247498 118.12442017 9.81861877 C118.11902725 11.73480263 118.11902725 11.73480263 118.11352539 13.68969727 C118.11324352 15.03958128 118.11340125 16.38946544 118.1139679 17.73934937 C118.11425587 21.41480608 118.10835916 25.09023043 118.10139394 28.7656796 C118.09516038 32.60273149 118.0945566 36.43978404 118.09336853 40.27684021 C118.09025522 47.54771218 118.08204183 54.81856919 118.07201904 62.08943456 C118.0608579 70.36499352 118.05534745 78.64055318 118.05032361 86.91611779 C118.03985922 103.94408719 118.02225978 120.97204202 118 138 C115.64892578 138.6237793 115.64892578 138.6237793 113 139 C110.6171875 137.01953125 110.6171875 137.01953125 108 134 C106.90277419 132.83314643 105.80092686 131.67062712 104.6953125 130.51171875 C103.50390246 129.23819959 102.31384028 127.96341839 101.125 126.6875 C100.50149658 126.01887939 99.87799316 125.35025879 99.2355957 124.66137695 C95.62995565 120.78379129 92.0718856 116.87657481 88.6171875 112.86328125 C86.71420856 110.67071856 84.76402596 108.52445653 82.8125 106.375 C79.17715479 102.35081482 75.63866688 98.25488227 72.125 94.125 C67.78297867 89.02537559 63.34278978 84.03709639 58.7956543 79.11987305 C55.73670687 75.81171514 52.74954556 72.45308484 49.80078125 69.046875 C47.61224335 66.55925274 45.36760809 64.12646548 43.125 61.6875 C39.87371306 58.12865889 36.75960542 54.51480381 33.75 50.75 C29.40373433 45.35597385 24.72603075 40.32264205 19.95996094 35.30175781 C19.39051758 34.70073242 18.82107422 34.09970703 18.234375 33.48046875 C17.73131836 32.95348389 17.22826172 32.42649902 16.70996094 31.88354492 C14.39043138 29.32855199 12.20916554 26.65099865 10 24 C9.67 61.95 9.34 99.9 9 139 C6.03 139 3.06 139 0 139 C-1.71635338 137.28364662 -1.1261073 135.02853533 -1.12698364 132.6854248 C-1.12980347 131.5327562 -1.13262329 130.38008759 -1.13552856 129.19248962 C-1.13350433 127.91660477 -1.1314801 126.64071991 -1.12939453 125.32617188 C-1.13074856 123.97790988 -1.1325285 122.62964825 -1.13470459 121.28138733 C-1.13927873 117.60999972 -1.13748945 113.93864009 -1.1343255 110.26725197 C-1.1318018 106.43333483 -1.13413947 102.59942016 -1.13571167 98.76550293 C-1.13753334 92.32592334 -1.13512713 85.8863552 -1.13037109 79.44677734 C-1.12492848 71.99127837 -1.12669114 64.53580674 -1.1321975 57.08030844 C-1.13672871 50.69051424 -1.13737914 44.3007283 -1.13475883 37.91093302 C-1.1331961 34.08961952 -1.13300217 30.2683189 -1.13629532 26.44700623 C-1.13917416 22.85526175 -1.13719812 19.26355269 -1.13140106 15.67181206 C-1.12943793 13.71704533 -1.13242727 11.76227563 -1.13552856 9.80751038 C-1.13270874 8.65484177 -1.12988892 7.50217316 -1.12698364 6.3145752 C-1.12660662 5.3065107 -1.12622959 4.2984462 -1.12584114 3.25983429 C-1 1 -1 1 0 0 Z " fill="#0E0F10" transform="translate(1640,943)"/>
<path d="M0 0 C2.97 0 5.94 0 9 0 C9.33 19.8 9.66 39.6 10 60 C40.36 60 70.72 60 102 60 C102.28939672 40.6281289 102.28939672 40.6281289 102.56811523 21.25610352 C102.60621877 18.83869826 102.64468623 16.4212987 102.68359375 14.00390625 C102.70006958 12.7351062 102.71654541 11.46630615 102.73352051 10.15905762 C102.75370239 8.96131714 102.77388428 7.76357666 102.79467773 6.52954102 C102.81022202 5.48363297 102.8257663 4.43772491 102.84178162 3.36012268 C103 1 103 1 104 0 C105.8125 -0.1328125 105.8125 -0.1328125 108 -0.125 C108.721875 -0.12757813 109.44375 -0.13015625 110.1875 -0.1328125 C112 0 112 0 113 1 C113.09852467 2.76928957 113.12632089 4.54254465 113.12698364 6.3145752 C113.13121338 8.04357811 113.13121338 8.04357811 113.13552856 9.80751038 C113.13249222 11.72133766 113.13249222 11.72133766 113.12939453 13.67382812 C113.13074856 15.02209012 113.1325285 16.37035175 113.13470459 17.71861267 C113.13927873 21.39000028 113.13748945 25.06135991 113.1343255 28.73274803 C113.1318018 32.56666517 113.13413947 36.40057984 113.13571167 40.23449707 C113.13753334 46.67407666 113.13512713 53.1136448 113.13037109 59.55322266 C113.12492848 67.00872163 113.12669114 74.46419326 113.1321975 81.91969156 C113.13672871 88.30948576 113.13737914 94.6992717 113.13475883 101.08906698 C113.1331961 104.91038048 113.13300217 108.7316811 113.13629532 112.55299377 C113.13917416 116.14473825 113.13719812 119.73644731 113.13140106 123.32818794 C113.12943793 125.28295467 113.13242727 127.23772437 113.13552856 129.19248962 C113.13270874 130.34515823 113.12988892 131.49782684 113.12698364 132.6854248 C113.1264181 134.19752155 113.1264181 134.19752155 113.12584114 135.74016571 C113 138 113 138 112 139 C109.03 139 106.06 139 103 139 C103 116.23 103 93.46 103 70 C56.965 70.495 56.965 70.495 10 71 C9.67 93.44 9.34 115.88 9 139 C6.03 139 3.06 139 0 139 C-1.71635338 137.28364662 -1.1261073 135.02853533 -1.12698364 132.6854248 C-1.12980347 131.5327562 -1.13262329 130.38008759 -1.13552856 129.19248962 C-1.13350433 127.91660477 -1.1314801 126.64071991 -1.12939453 125.32617188 C-1.13074856 123.97790988 -1.1325285 122.62964825 -1.13470459 121.28138733 C-1.13927873 117.60999972 -1.13748945 113.93864009 -1.1343255 110.26725197 C-1.1318018 106.43333483 -1.13413947 102.59942016 -1.13571167 98.76550293 C-1.13753334 92.32592334 -1.13512713 85.8863552 -1.13037109 79.44677734 C-1.12492848 71.99127837 -1.12669114 64.53580674 -1.1321975 57.08030844 C-1.13672871 50.69051424 -1.13737914 44.3007283 -1.13475883 37.91093302 C-1.1331961 34.08961952 -1.13300217 30.2683189 -1.13629532 26.44700623 C-1.13917416 22.85526175 -1.13719812 19.26355269 -1.13140106 15.67181206 C-1.12943793 13.71704533 -1.13242727 11.76227563 -1.13552856 9.80751038 C-1.13270874 8.65484177 -1.12988892 7.50217316 -1.12698364 6.3145752 C-1.12660662 5.3065107 -1.12622959 4.2984462 -1.12584114 3.25983429 C-1 1 -1 1 0 0 Z " fill="#0F0F10" transform="translate(852,943)"/>
<path d="M0 0 C0.86625 0.12375 1.7325 0.2475 2.625 0.375 C5.51713146 4.40053433 7.25136818 9.00360155 9.125 13.5625 C9.83685314 15.27359832 10.54911517 16.98452657 11.26171875 18.6953125 C11.64247559 19.6121582 12.02323242 20.52900391 12.41552734 21.47363281 C14.56807341 26.63731014 16.75475612 31.78653323 18.9375 36.9375 C19.88026781 39.16533941 20.82297547 41.39320429 21.765625 43.62109375 C23.64965227 48.07220456 25.53523702 52.52265144 27.421875 56.97265625 C32.16483846 68.16390895 36.8932525 79.36074276 41.55249023 90.5871582 C43.86764746 96.16501874 46.19618622 101.73692495 48.54260254 107.30169678 C49.93517153 110.60601354 51.32353054 113.91209185 52.71154785 117.21832275 C53.40130902 118.85840081 54.09294637 120.49769111 54.78649902 122.13616943 C55.76098363 124.43902177 56.72882239 126.74456454 57.6953125 129.05078125 C57.99166595 129.7465477 58.28801941 130.44231415 58.59335327 131.15916443 C59.80567415 134.06770203 60.625 136.18969896 60.625 139.375 C59.0223218 139.48324843 57.41754252 139.56070645 55.8125 139.625 C54.91917969 139.67140625 54.02585937 139.7178125 53.10546875 139.765625 C50.625 139.375 50.625 139.375 49.1550293 137.78833008 C47.25592165 134.79284913 45.95493782 131.65861293 44.6640625 128.37109375 C44.39161713 127.69256851 44.11917175 127.01404327 43.83847046 126.31495667 C42.96998999 124.14968251 42.10952188 121.98134412 41.25 119.8125 C40.39644603 117.66914732 39.541091 115.52654659 38.68295288 113.38502502 C38.15123633 112.05704133 37.62218588 110.72798505 37.09658813 109.39756775 C34.78981167 103.61772089 32.2109364 98.06406008 29.625 92.375 C9.825 92.375 -9.975 92.375 -30.375 92.375 C-35.08833033 103.72633211 -35.08833033 103.72633211 -39.79760742 115.0793457 C-43.18954518 123.24374914 -46.650563 131.3548046 -50.375 139.375 C-53.675 139.375 -56.975 139.375 -60.375 139.375 C-59.78073042 134.72010884 -58.49799466 130.8900534 -56.63671875 126.58984375 C-56.22187225 125.62267677 -56.22187225 125.62267677 -55.79864502 124.63597107 C-55.20307641 123.24923004 -54.60456445 121.86375007 -54.00338745 120.47943115 C-52.3901669 116.76406874 -50.7987055 113.0393692 -49.203125 109.31640625 C-48.8783165 108.56037109 -48.553508 107.80433594 -48.21885681 107.02539062 C-45.18619985 99.95958807 -42.23885756 92.86053115 -39.3125 85.75 C-33.06390124 70.59795203 -26.73922391 55.47878367 -20.375 40.375 C-20.06763916 39.64537048 -19.76027832 38.91574097 -19.44360352 38.16400146 C-17.52568485 33.6121852 -15.60479186 29.0616393 -13.68035889 24.51257324 C-13.06649443 23.06093262 -12.45324066 21.60903358 -11.84063721 20.15686035 C-10.98684672 18.13369307 -10.13048585 16.11163272 -9.2734375 14.08984375 C-8.78536621 12.93605225 -8.29729492 11.78226074 -7.79443359 10.59350586 C-3.35616592 0.52992093 -3.35616592 0.52992093 0 0 Z M-1.375 20.375 C-12.20195705 45.96781801 -12.20195705 45.96781801 -22.875 71.625 C-23.24165771 72.50881348 -23.60831543 73.39262695 -23.98608398 74.30322266 C-25.7344515 78.21001072 -25.7344515 78.21001072 -26.375 82.375 C-8.885 82.375 8.605 82.375 26.625 82.375 C21.675 70.495 21.675 70.495 16.625 58.375 C13.671875 51.2734375 13.671875 51.2734375 12.49365234 48.43945312 C8.59254675 39.06045286 4.66207721 29.69638152 0.625 20.375 C-0.035 20.375 -0.695 20.375 -1.375 20.375 Z " fill="#0E0F10" transform="translate(1053.375,942.625)"/>
<path d="M0 0 C0.721875 0.00257813 1.44375 0.00515625 2.1875 0.0078125 C2.909375 0.00523437 3.63125 0.00265625 4.375 0 C6.1875 0.1328125 6.1875 0.1328125 7.1875 1.1328125 C7.29672219 3.75628221 7.34172922 6.35438625 7.34521484 8.97875977 C7.35283592 10.21326874 7.35283592 10.21326874 7.36061096 11.47271729 C7.37134492 13.26898177 7.37995313 15.06525988 7.38673019 16.86154366 C7.39851626 19.71830817 7.41797655 22.5749213 7.43984985 25.43162537 C7.50141722 33.5577985 7.55517967 41.68396267 7.58886719 49.81030273 C7.61001677 54.7783016 7.64549695 59.74603506 7.68962479 64.71388054 C7.70364698 66.59577201 7.71247552 68.47771058 7.71567917 70.35965157 C7.74870456 87.929737 8.07618797 107.76773314 21.1875 121.1328125 C32.65168379 130.03820659 46.13240189 131.5307318 60.1875 130.1328125 C72.53804745 127.74982306 81.13390696 122.68992537 88.33984375 112.50390625 C95.78266166 99.94941717 94.64036959 82.30322835 94.6640625 68.2578125 C94.67841084 66.31151271 94.69417456 64.36522289 94.71127319 62.41894531 C94.75267235 57.35609899 94.77798018 52.2933147 94.79876709 47.23034668 C94.83493395 39.07271064 94.89544725 30.91522641 94.95725632 22.75775146 C94.97635182 19.91418503 94.98806629 17.07066003 94.99868774 14.22705078 C95.00888889 12.50292871 95.01924586 10.77880754 95.02978516 9.0546875 C95.03082748 8.26212555 95.03186981 7.4695636 95.03294373 6.65298462 C95.07405156 1.24626094 95.07405156 1.24626094 96.1875 0.1328125 C103.70988806 -0.10599347 103.70988806 -0.10599347 106.1875 1.1328125 C106.25746778 12.05217609 106.31054623 22.97148504 106.34293652 33.8910284 C106.35849382 38.96315959 106.37954711 44.03513574 106.41381836 49.10717773 C106.44677054 54.01554925 106.46442738 58.92377305 106.47213173 63.83224678 C106.47761167 65.69103885 106.48830933 67.5498242 106.50469017 69.40855217 C106.63289439 84.57977241 106.20318991 100.31619871 99.1875 114.1328125 C98.76726562 114.97199219 98.34703125 115.81117187 97.9140625 116.67578125 C91.48318825 128.41834445 81.49097001 135.07450352 68.875 138.9453125 C52.38625352 142.67821112 34.92937052 140.81601366 20.015625 132.9296875 C7.37525164 124.89851106 2.02784953 113.06146484 -1.8125 99.1328125 C-2.76607206 93.70820885 -2.95536578 88.48539958 -2.94189453 83.00048828 C-2.94364685 82.11349747 -2.94539917 81.22650665 -2.94720459 80.31263733 C-2.95158166 77.40111293 -2.94870129 74.48964994 -2.9453125 71.578125 C-2.94598637 69.55028268 -2.94695709 67.52244043 -2.94821167 65.49459839 C-2.94968271 61.2564822 -2.94755182 57.01838716 -2.94287109 52.78027344 C-2.93715226 47.3358449 -2.94047012 41.89146542 -2.94644356 36.44703865 C-2.95004657 32.2659162 -2.94891217 28.0848055 -2.94631577 23.90368271 C-2.9456469 21.89492665 -2.9464735 19.88616953 -2.94879532 17.8774147 C-2.95131993 15.08117055 -2.94748498 12.2850076 -2.94189453 9.48876953 C-2.94493088 8.23428261 -2.94493088 8.23428261 -2.94802856 6.95445251 C-2.92291928 0.21417943 -2.92291928 0.21417943 0 0 Z " fill="#0F1010" transform="translate(1358.8125,942.8671875)"/>
<path d="M0 0 C4.7830729 0.55077809 8.8939857 1.52549687 13.37109375 3.28515625 C15.09682617 3.95708008 15.09682617 3.95708008 16.85742188 4.64257812 C18.62956055 5.34543945 18.62956055 5.34543945 20.4375 6.0625 C21.64599609 6.53494141 22.85449219 7.00738281 24.09960938 7.49414062 C27.0690912 8.65611177 30.03569469 9.82489989 33 11 C32.46257545 15.06786216 31.58300467 18.19698766 29.703125 21.83203125 C27.52829083 26.43449684 26.10218449 31.01358142 24.921875 35.94921875 C20.7104989 53.2291742 17.10717518 65.56583057 2.09228516 76.43554688 C-1.21961822 78.91193857 -4.14261435 81.76849427 -7.125 84.625 C-11.32936396 88.52188447 -15.60440929 92.31997057 -20 96 C-20.66 95.67 -21.32 95.34 -22 95 C-18.37 87.41 -14.74 79.82 -11 72 C-12.65 71.67 -14.3 71.34 -16 71 C-16.3403125 72.7634375 -16.3403125 72.7634375 -16.6875 74.5625 C-18.22010836 81.54313956 -20.671259 88.25376175 -23 95 C-23.66 94.67 -24.32 94.34 -25 94 C-25.37670898 91.48364258 -25.37670898 91.48364258 -25.55859375 88.08203125 C-25.62933105 86.8079541 -25.70006836 85.53387695 -25.77294922 84.22119141 C-25.80797546 83.5339801 -25.84300171 82.8467688 -25.87908936 82.13873291 C-26.00081067 79.98566045 -26.16176835 77.83866608 -26.33251953 75.68896484 C-28.07934145 52.77813059 -26.92550596 38.14356512 -12.04394531 19.64648438 C-8.95055356 15.64118497 -6.47719144 11.34082656 -4 6.9375 C-3.2092248 5.57109828 -2.4176682 4.20514819 -1.625 2.83984375 C-1.08875 1.90269531 -0.5525 0.96554687 0 0 Z M-13.4375 50.625 C-15.3861606 53.58696412 -15.92895147 55.44757366 -16 59 C-14.43616066 63.3105786 -14.43616066 63.3105786 -11 66 C-5.34258799 66.62559723 -5.34258799 66.62559723 -0.5625 64.125 C2.03473593 60.59275913 2.5180745 58.40363323 2 54 C0.00366611 51.13027004 -1.47229883 49.34789235 -4.97265625 48.55078125 C-8.37696518 48.36624862 -10.59824307 48.73216204 -13.4375 50.625 Z " fill="#F19D64" transform="translate(250,1212)"/>
<path d="M0 0 C1.29852905 0.0002417 1.29852905 0.0002417 2.62329102 0.00048828 C12.7270738 0.17656081 22.17635088 2.4473907 31.5 6.375 C31.03816182 10.53154359 30.61990898 12.58966571 27.5 15.375 C26.63117188 15.09785156 25.76234375 14.82070313 24.8671875 14.53515625 C23.71476562 14.17292969 22.56234375 13.81070313 21.375 13.4375 C20.23804688 13.07785156 19.10109375 12.71820312 17.9296875 12.34765625 C6.86784006 9.21052639 -6.82890887 8.48058222 -17.5 13.375 C-21.78440413 16.0185685 -23.88007705 18.60049024 -25.5 23.375 C-26.61018045 31.81725136 -25.43231152 38.40250508 -20.5 45.375 C-13.96771557 53.38961051 -5.85680016 58.77626474 2.75927734 64.26269531 C13.33339192 71.01945071 23.75627375 78.585038 30.5 89.375 C30.9125 90.014375 31.325 90.65375 31.75 91.3125 C35.98062893 99.06865304 35.71728374 108.89362174 33.83984375 117.34765625 C30.91870203 125.5293822 25.14593518 132.25795798 17.5 136.375 C2.38536587 142.68784869 -16.95270457 144.44711967 -32.5 138.375 C-36.58666947 136.52256505 -40.5653642 134.53067812 -44.5 132.375 C-44.5 128.375 -44.5 128.375 -42 125.625 C-41.175 124.8825 -40.35 124.14 -39.5 123.375 C-38.90574219 123.70113281 -38.31148437 124.02726562 -37.69921875 124.36328125 C-24.58211064 131.2788328 -9.19603903 134.28935724 5.4453125 130.1875 C11.09876974 127.95191235 16.83729183 125.2698606 20.125 119.9375 C22.93893443 112.98306204 23.10127618 103.07213138 20.1875 96.125 C13.33536725 85.21321326 2.46026702 78.3559283 -8.0234375 71.3828125 C-19.63139896 63.65220916 -32.26883092 54.23784827 -37.13671875 40.58984375 C-38.5586075 31.92090909 -39.18926904 21.64653472 -34.046875 14.1640625 C-25.01937533 3.72316641 -13.54965991 -0.0238527 0 0 Z " fill="#0E0F10" transform="translate(1565.5,941.625)"/>
<path d="M0 0 C1.21055054 0.30671631 1.21055054 0.30671631 2.44555664 0.61962891 C5.47731244 1.48865998 7.81768397 2.22914102 10.01953125 4.546875 C10.46443779 7.89257219 8.98442982 9.92058031 7.3125 12.75 C6.76013672 12.59853516 6.20777344 12.44707031 5.63867188 12.29101562 C-17.74483838 5.94035438 -17.74483838 5.94035438 -40.6875 11.75 C-45.22145468 15.17359843 -46.78573575 18.15906165 -47.6875 23.75 C-48.06670164 33.24462559 -45.05188126 39.79508935 -38.83984375 46.84765625 C-32.22220026 53.27313586 -24.37294108 58.10955527 -16.73999023 63.22558594 C-10.19587507 67.63845025 -4.18854832 72.0569233 1.3125 77.75 C1.97121094 78.3996875 2.62992188 79.049375 3.30859375 79.71875 C10.97229989 87.74891194 12.87450356 95.80004955 12.71728516 106.62817383 C12.50701215 112.06549352 11.87775614 115.97331615 9.3125 120.75 C9.00699219 121.33652344 8.70148438 121.92304687 8.38671875 122.52734375 C3.73642721 130.25528279 -5.13145437 134.67871333 -13.51953125 137.2421875 C-26.41595407 140.26297122 -41.16622694 140.1417898 -53.6875 135.75 C-54.61304688 135.43675781 -55.53859375 135.12351562 -56.4921875 134.80078125 C-61.04264034 133.13228188 -64.6080193 131.66933908 -67.6875 127.75 C-66.0375 125.44 -64.3875 123.13 -62.6875 120.75 C-61.51832031 121.24371094 -60.34914063 121.73742188 -59.14453125 122.24609375 C-57.59645527 122.89347098 -56.04827254 123.54059299 -54.5 124.1875 C-53.73107422 124.51298828 -52.96214844 124.83847656 -52.16992188 125.17382812 C-40.87655671 129.87535783 -26.47375004 131.03492674 -14.796875 126.7265625 C-8.45219822 123.78921214 -4.12605298 121.07693749 -0.6875 114.75 C1.55646373 108.01810882 1.25141458 100.84029585 -1.8125 94.4375 C-6.1433156 86.3278355 -12.56152617 81.00378935 -19.9375 75.75 C-20.7843335 75.13552002 -21.63116699 74.52104004 -22.50366211 73.88793945 C-26.71195574 70.84328898 -30.95672678 67.86130808 -35.25 64.9375 C-43.20521604 59.41188746 -50.52400595 53.01159048 -55.6875 44.75 C-56.30625 43.7909375 -56.30625 43.7909375 -56.9375 42.8125 C-61.15186746 35.08615965 -61.13527791 25.10956246 -58.875 16.7421875 C-55.22161925 8.4459687 -48.57127655 3.75989297 -40.375 0.375 C-27.570502 -4.36740667 -13.05062459 -3.38868963 0 0 Z " fill="#0E0F10" transform="translate(1305.6875,944.25)"/>
<path d="M0 0 C0.93925827 0.00202423 1.87851654 0.00404846 2.84623718 0.00613403 C3.82988754 0.00438171 4.8135379 0.00262939 5.82699585 0.00082397 C9.09579709 -0.00359648 12.36454472 -0.00065587 15.63334656 0.00271606 C17.89396678 0.00204308 20.15458693 0.0010731 22.41520691 -0.00018311 C27.15996487 -0.00166034 31.90470405 0.0004953 36.64945984 0.00515747 C42.7464828 0.01085477 48.84346175 0.0075759 54.94048309 0.00158501 C59.61058385 -0.00201991 64.28067408 -0.00088234 68.95077515 0.0017128 C71.19956467 0.00238226 73.44835513 0.00155298 75.69714355 -0.00076675 C78.83410694 -0.00329214 81.97099797 0.00054571 85.10795593 0.00613403 C86.51684334 0.00309769 86.51684334 0.00309769 87.95419312 0 C94.36283431 0.02126631 94.36283431 0.02126631 95.47709656 1.13552856 C95.61824817 3.80611707 95.51956763 6.45985094 95.47709656 9.13552856 C93.16889148 10.2896311 91.86925379 10.25655826 89.30278015 10.24905396 C88.01166824 10.24894066 88.01166824 10.24894066 86.69447327 10.24882507 C85.29909836 10.24108315 85.29909836 10.24108315 83.87553406 10.23318481 C82.92393402 10.23176987 81.97233398 10.23035492 80.99189758 10.22889709 C77.94526559 10.22328868 74.89870643 10.21073476 71.85209656 10.19802856 C69.78959762 10.19301465 67.72709753 10.18845155 65.66459656 10.18435669 C60.60206839 10.17331652 55.53959483 10.15604623 50.47709656 10.13552856 C50.47286462 10.79428451 50.46863268 11.45304045 50.4642725 12.13175869 C50.36110461 28.13824781 50.25248795 44.14468918 50.1377573 60.15109921 C50.08240744 67.89158027 50.02892261 75.63206593 49.9797821 83.37258911 C49.9369618 90.11682899 49.89068935 96.86103468 49.84021801 103.60522181 C49.81359964 107.17837713 49.78874622 110.7515256 49.76802254 114.32472038 C49.7448606 118.30719398 49.71399356 122.28958692 49.68241882 126.27200317 C49.67666336 127.46530243 49.6709079 128.65860168 49.66497803 129.88806152 C49.65518921 130.96644791 49.64540039 132.04483429 49.63531494 133.15589905 C49.62886239 134.09889327 49.62240984 135.04188749 49.61576176 136.0134573 C49.47709656 138.13552856 49.47709656 138.13552856 48.47709656 139.13552856 C46.97971532 139.23343426 45.47766764 139.26527721 43.97709656 139.26052856 C43.16240906 139.26310669 42.34772156 139.26568481 41.50834656 139.26834106 C39.47709656 139.13552856 39.47709656 139.13552856 38.47709656 138.13552856 C38.38095523 136.46528187 38.35521933 134.7909458 38.35684204 133.11793518 C38.35546738 132.03113464 38.35409271 130.94433411 38.35267639 129.82460022 C38.35806931 128.02062523 38.35806931 128.02062523 38.36357117 126.1802063 C38.36342514 124.92184967 38.36327911 123.66349304 38.36312866 122.36700439 C38.36284071 118.90641603 38.36873707 115.44586205 38.37570262 111.98528171 C38.38193653 108.37244765 38.38253999 104.75961289 38.38372803 101.14677429 C38.38684123 94.30089348 38.39505448 87.45502856 38.40507752 80.60915476 C38.41623899 72.81726267 38.42174919 65.02536984 38.42677295 57.23347175 C38.4372371 41.20081471 38.45483633 25.16817366 38.47709656 9.13552856 C37.81709656 9.46552856 37.15709656 9.79552856 36.47709656 10.13552856 C35.12941822 10.2294786 33.77726364 10.26346207 32.42631531 10.2649231 C31.1749176 10.26965134 31.1749176 10.26965134 29.89823914 10.2744751 C28.99613708 10.27245087 28.09403503 10.27042664 27.16459656 10.26834106 C26.23993591 10.26929779 25.31527527 10.27025452 24.3625946 10.27124023 C22.40564404 10.27192139 20.44869123 10.27007157 18.491745 10.26589966 C15.48941492 10.26055051 12.48723446 10.26584682 9.48490906 10.27224731 C7.58647123 10.27158652 5.68803349 10.27030534 3.78959656 10.26834106 C2.88749451 10.2703653 1.98539246 10.27238953 1.05595398 10.2744751 C0.22168884 10.27132294 -0.61257629 10.26817078 -1.47212219 10.2649231 C-2.57559998 10.26372971 -2.57559998 10.26372971 -3.70137024 10.26251221 C-5.52290344 10.13552856 -5.52290344 10.13552856 -7.52290344 9.13552856 C-7.62055969 2.98318481 -7.62055969 2.98318481 -7.52290344 1.13552856 C-5.57138659 -0.81598829 -2.59781713 0.00862055 0 0 Z " fill="#0E0F10" transform="translate(1128.5229034423828,942.8644714355469)"/>
<path d="M0 0 C0.78761719 0.58265625 1.57523438 1.1653125 2.38671875 1.765625 C3.01964844 2.20390625 3.65257812 2.6421875 4.3046875 3.09375 C14.59872396 10.91439098 21.43530455 24.17989858 23.38671875 36.765625 C24.58939865 53.37425984 22.52399998 67.06235325 12.38671875 80.765625 C11.9484375 81.39855469 11.51015625 82.03148437 11.05859375 82.68359375 C3.23795277 92.97763021 -10.02755483 99.8142108 -22.61328125 101.765625 C-39.18656815 102.96574525 -52.96451203 100.93700079 -66.61328125 90.765625 C-67.67289063 90.01539063 -67.67289063 90.01539063 -68.75390625 89.25 C-79.01959222 81.24761487 -85.65937322 68.45955727 -87.61328125 55.765625 C-89.17811558 39.40793765 -86.59624796 25.16157179 -76.61328125 11.765625 C-76.113125 11.05921875 -75.61296875 10.3528125 -75.09765625 9.625 C-57.63236476 -12.77996989 -22.59034822 -15.69781862 0 0 Z M-69.578125 13.2578125 C-79.11558088 25.01030131 -82.90747435 37.7274658 -81.61328125 52.765625 C-79.73400934 66.05597142 -73.00995613 77.32844803 -62.61328125 85.765625 C-50.31927942 94.50083683 -37.46296045 97.44118473 -22.546875 95.33203125 C-9.25872287 92.54273204 1.57378506 84.94679094 9.390625 73.9453125 C17.201384 61.45462065 19.35224519 48.12856773 16.32421875 33.703125 C12.54645384 20.38430733 4.2074551 10.16519447 -7.42578125 2.890625 C-28.46764015 -8.58917397 -53.2764202 -4.19773348 -69.578125 13.2578125 Z " fill="#959595" transform="translate(709.61328125,1204.234375)"/>
<path d="M0 0 C5.16103498 4.08898176 7.29721681 8.17198036 8.6875 14.55859375 C-1.49488022 17.24283777 -1.49488022 17.24283777 -5.3125 15.55859375 C-6.3189275 13.89580048 -7.31835407 12.22875891 -8.3125 10.55859375 C-12.42249656 7.69115429 -15.5930276 7.07454119 -20.41796875 7.9140625 C-24.21556653 9.20602876 -26.37011442 12.01281021 -28.3984375 15.33984375 C-31.39674196 22.61777937 -31.09285635 32.24106248 -28.3125 39.55859375 C-26.68668546 42.61512508 -25.52285999 44.0706967 -22.296875 45.37109375 C-17.19068705 46.76053265 -13.22597879 46.86492053 -8.3125 44.55859375 C-6.88161789 42.2733448 -6.88161789 42.2733448 -6.3125 39.55859375 C-5.64583333 37.89192708 -4.97916667 36.22526042 -4.3125 34.55859375 C-2.89444169 34.84341743 -1.47809621 35.13677519 -0.0625 35.43359375 C0.72640625 35.59601563 1.5153125 35.7584375 2.328125 35.92578125 C4.65581144 36.5500945 6.57781952 37.40697917 8.6875 38.55859375 C5.77831809 46.7320096 3.41676661 51.92907308 -4.3671875 56.3203125 C-11.85372961 59.4678375 -20.3363814 59.50215598 -27.9609375 56.7578125 C-35.01415274 53.16090706 -39.76059595 48.06735076 -42.65625 40.734375 C-45.64732386 30.81754083 -45.23972914 20.15520631 -41.3125 10.55859375 C-37.82273095 4.36160992 -32.95860215 -0.86519753 -26.11328125 -3.1875 C-17.01808968 -5.42655395 -8.10155517 -5.04978692 0 0 Z " fill="#959595" transform="translate(695.3125,1223.44140625)"/>
<path d="M0 0 C4.08920079 -0.10001808 8.17791311 -0.17200015 12.26806641 -0.21972656 C13.65491156 -0.23965342 15.04167482 -0.2668056 16.42822266 -0.30175781 C26.42012062 -0.54704628 34.21589264 0.40099987 42.8125 5.75 C49.08731787 12.20409838 52.27124024 19.59790126 52.375 28.625 C52.17515147 40.46602556 48.38809129 49.54564221 40.1171875 57.90234375 C32.06750818 65.36802673 23.0794398 69.29403946 11.97265625 69.1953125 C10.68681641 69.18886719 9.40097656 69.18242188 8.07617188 69.17578125 C6.73827846 69.15907601 5.40038783 69.14214619 4.0625 69.125 C2.69727217 69.11495322 1.3320372 69.10583036 -0.03320312 69.09765625 C-3.35565199 69.07417605 -6.67773321 69.04133359 -10 69 C-9.67 67.68 -9.34 66.36 -9 65 C-7.02 65 -5.04 65 -3 65 C-2.89187988 63.96311035 -2.78375977 62.9262207 -2.67236328 61.85791016 C-1.33744768 49.3244451 0.35527859 36.85353506 2.125 24.375 C2.40518627 22.38545022 2.68513545 20.39586703 2.96484375 18.40625 C3.64050804 13.6037788 4.31933902 8.80176545 5 4 C3.02 4 1.04 4 -1 4 C-0.67 2.68 -0.34 1.36 0 0 Z M11 4 C9.39619794 10.79882153 8.24539799 17.57686583 7.2734375 24.4921875 C7.04462387 26.09382248 7.04462387 26.09382248 6.81118774 27.72781372 C6.49191634 29.96804399 6.17434511 32.20851717 5.85839844 34.44921875 C5.37344182 37.88604265 4.8824402 41.32196407 4.390625 44.7578125 C4.08037394 46.94005369 3.77046589 49.12234369 3.4609375 51.3046875 C3.24067398 52.84683426 3.24067398 52.84683426 3.01596069 54.4201355 C2.81542587 55.84774704 2.81542587 55.84774704 2.61083984 57.30419922 C2.49251801 58.14087128 2.37419617 58.97754333 2.25228882 59.83956909 C1.94200555 62.13410662 1.94200555 62.13410662 2 65 C15.21427215 65.44047574 27.26019441 63.54420585 37.3125 54.375 C44.49064144 46.73187773 47.39100183 37.16223357 47.28125 26.88671875 C46.59615202 19.85494916 43.39807344 14.49839453 38 10 C37.13375 9.278125 36.2675 8.55625 35.375 7.8125 C27.82106772 3.75575859 19.40033468 3.73332271 11 4 Z " fill="#0E0F10" transform="translate(1333,1179)"/>
<path d="M0 0 C6.27 0 12.54 0 19 0 C18.67 1.32 18.34 2.64 18 4 C16.35 4 14.7 4 13 4 C15.97 12.25 18.94 20.5 22 29 C23.815 26.36 25.63 23.72 27.5 21 C28.36141602 19.77796875 28.36141602 19.77796875 29.24023438 18.53125 C32.65632558 13.40464848 33.61503142 10.1503142 33 4 C31.02 4 29.04 4 27 4 C27 2.68 27 1.36 27 0 C33.27 0 39.54 0 46 0 C46 1.32 46 2.64 46 4 C44.02 4 42.04 4 40 4 C42.97 12.25 45.94 20.5 49 29 C50.918125 25.968125 52.83625 22.93625 54.8125 19.8125 C55.41167236 18.86608643 56.01084473 17.91967285 56.62817383 16.94458008 C59.12905458 12.98810693 61.62109609 9.0316161 64 5 C62.68 4.67 61.36 4.34 60 4 C60 2.68 60 1.36 60 0 C65.94 0 71.88 0 78 0 C78 1.32 78 2.64 78 4 C76.46472656 3.96326172 76.46472656 3.96326172 74.8984375 3.92578125 C72.24839454 4.31282875 71.21783116 4.77154136 69.34863281 6.73193359 C67.66301302 9.16220257 66.12964492 11.64117783 64.625 14.1875 C64.06699707 15.08629883 63.50899414 15.98509766 62.93408203 16.91113281 C61.26945044 19.59577566 59.63300258 22.29603508 58 25 C56.6862557 27.14364398 55.36566054 29.2820721 54.02880859 31.41137695 C52.94033079 33.14589375 51.87184179 34.89290816 50.8046875 36.640625 C50.20914062 37.41921875 49.61359375 38.1978125 49 39 C48.01 39 47.02 39 46 39 C43.36 31.41 40.72 23.82 38 16 C35.03463881 18.96536119 33.31905661 20.81581386 31.30859375 24.2578125 C30.83873047 25.04800781 30.36886719 25.83820313 29.88476562 26.65234375 C28.91551917 28.30830327 27.94677358 29.96455605 26.97851562 31.62109375 C26.50994141 32.40871094 26.04136719 33.19632813 25.55859375 34.0078125 C24.92908813 35.08506592 24.92908813 35.08506592 24.28686523 36.18408203 C23 38 23 38 20 40 C15.41970088 28.41374039 11.06930092 16.77563269 7 5 C4.36 4.67 1.72 4.34 -1 4 C-0.67 2.68 -0.34 1.36 0 0 Z " fill="#0E0F10" transform="translate(1026,1211)"/>
<path d="M0 0 C6.93 0 13.86 0 21 0 C21 1.32 21 2.64 21 4 C18.69 4 16.38 4 14 4 C14.28188171 4.96386627 14.28188171 4.96386627 14.56945801 5.94720459 C16.52229757 12.62863187 18.46766738 19.31220116 20.40869141 25.99707031 C21.13431057 28.49242106 21.86183989 30.98721719 22.59130859 33.48144531 C23.63880684 37.06431687 24.67944524 40.6491194 25.71875 44.234375 C26.04685669 45.35116638 26.37496338 46.46795776 26.7130127 47.61859131 C27.01332397 48.65936829 27.31363525 49.70014526 27.62304688 50.77246094 C27.88952026 51.68735291 28.15599365 52.60224487 28.43054199 53.54486084 C29 56 29 56 29 60 C29.66 60 30.32 60 31 60 C31.39372803 58.95102539 31.39372803 58.95102539 31.79541016 57.88085938 C33.10156653 54.75709666 34.63487472 51.869329 36.2734375 48.90625 C36.59365875 48.32574387 36.91388 47.74523773 37.24380493 47.1471405 C38.28445772 45.26303811 39.32954067 43.38143893 40.375 41.5 C41.09383452 40.20162557 41.81258389 38.90320399 42.53125 37.60473633 C48.58718973 26.67923208 54.7520827 15.81688677 61 5 C59.02 4.67 57.04 4.34 55 4 C55.33 2.68 55.66 1.36 56 0 C62.93 0 69.86 0 77 0 C76.67 1.32 76.34 2.64 76 4 C73.03 4 70.06 4 67 4 C66.78859375 4.77730469 66.5771875 5.55460937 66.359375 6.35546875 C64.50586776 11.32478558 61.89979265 15.72865435 59.25 20.3125 C58.07226298 22.37071984 56.89520366 24.42932759 55.71875 26.48828125 C54.80222656 28.08857178 54.80222656 28.08857178 53.8671875 29.72119141 C51.39532424 34.06181948 48.9657314 38.42538531 46.53662109 42.79003906 C40.8691769 52.97254197 35.10237233 63.07153708 29 73 C27 72 27 72 26.03817749 69.33616638 C25.70508575 68.14813919 25.37199402 66.960112 25.02880859 65.73608398 C24.8431987 65.08244873 24.65758881 64.42881348 24.46635437 63.75537109 C23.8528298 61.5876626 23.2506304 59.41697492 22.6484375 57.24609375 C22.22600301 55.74517155 21.80286802 54.24444635 21.37905884 52.74391174 C20.26401615 48.78877923 19.15854011 44.83103354 18.05499268 40.87268066 C16.92781147 36.83603443 15.79166191 32.80191539 14.65625 28.76757812 C12.42868302 20.84750658 10.21120982 12.92465378 8 5 C5.36 4.67 2.72 4.34 0 4 C0 2.68 0 1.36 0 0 Z " fill="#0E0F10" transform="translate(878,1179)"/>
<path d="M0 0 C3.96 0 7.92 0 12 0 C11.31175125 9.30222518 10.20452957 18.51258689 8.9375 27.75 C8.7490696 29.14058717 8.56091696 30.53121202 8.37304688 31.921875 C7.91808023 35.28162871 7.46034572 38.64097984 7 42 C7.928125 41.195625 8.85625 40.39125 9.8125 39.5625 C14.49015872 35.50852911 19.122382 35.65754406 25.10546875 35.72265625 C28 36 28 36 31.1875 37.625 C34.53700643 42.01400842 34.06595714 46.35021372 33.44140625 51.6171875 C33.15739186 53.70436305 32.86416499 55.79030238 32.5625 57.875 C32.41490234 58.94492188 32.26730469 60.01484375 32.11523438 61.1171875 C31.75142443 63.74600777 31.3794543 66.37340016 31 69 C33.97 69.495 33.97 69.495 37 70 C37 71.32 37 72.64 37 74 C30.4 74 23.8 74 17 74 C17 72.68 17 71.36 17 70 C19.64 70 22.28 70 25 70 C26.85845196 57.0414313 26.85845196 57.0414313 27 44 C24.66239424 41.66239424 24.06741017 41.65704873 20.875 41.5625 C15.56708898 41.69947835 11.89364515 43.41858111 8 47 C4.50349959 52.47785065 4.20151237 58.61734091 3.4296875 64.98828125 C3 68 3 68 2 70 C4.64 70 7.28 70 10 70 C9.67 71.32 9.34 72.64 9 74 C2.4 74 -4.2 74 -11 74 C-11 72.68 -11 71.36 -11 70 C-8.36 70 -5.72 70 -3 70 C-2.86948242 68.99549805 -2.73896484 67.99099609 -2.60449219 66.95605469 C0.12795546 45.95009752 2.93322481 24.96019889 6 4 C3.69 4 1.38 4 -1 4 C-0.67 2.68 -0.34 1.36 0 0 Z " fill="#0E0F10" transform="translate(1207,1174)"/>
<path d="M0 0 C18.48 0 36.96 0 56 0 C55.34 5.28 54.68 10.56 54 16 C52.35 16 50.7 16 49 16 C48.92670204 11.60212211 48.92603934 8.29584263 50 4 C43.4 4 36.8 4 30 4 C29.608125 7.238125 29.21625 10.47625 28.8125 13.8125 C27.5461247 24.05461378 26.15795842 34.27812434 24.71151733 44.4961853 C24.48704641 46.08295267 24.26376067 47.66988815 24.04165649 49.25698853 C23.72678927 51.50259937 23.40712053 53.74747236 23.0859375 55.9921875 C22.9007959 57.29526855 22.7156543 58.59834961 22.52490234 59.94091797 C22 63 22 63 21 65 C23.64 65 26.28 65 29 65 C28.67 66.32 28.34 67.64 28 69 C21.07 69 14.14 69 7 69 C7.33 67.68 7.66 66.36 8 65 C10.64 65 13.28 65 16 65 C16.06469482 64.46149414 16.12938965 63.92298828 16.19604492 63.36816406 C18.55246964 43.87759878 21.26751166 24.44062853 24 5 C17.4 4.67 10.8 4.34 4 4 C3.67 7.96 3.34 11.92 3 16 C1.35 16 -0.3 16 -2 16 C-1.85890014 13.89551062 -1.71195825 11.7914123 -1.5625 9.6875 C-1.48128906 8.51574219 -1.40007812 7.34398437 -1.31640625 6.13671875 C-1 3 -1 3 0 0 Z " fill="#0E0F10" transform="translate(1144,1179)"/>
<path d="M0 0 C1.53333984 -0.04253906 1.53333984 -0.04253906 3.09765625 -0.0859375 C6.6221712 0.48612958 7.73157295 1.63414837 9.9375 4.375 C12.90419059 10.30838118 10.52192448 19.14099933 9.4375 25.4375 C9.29441406 26.30310547 9.15132812 27.16871094 9.00390625 28.06054688 C8.65486324 30.1664397 8.29710461 32.27088495 7.9375 34.375 C10.2475 34.375 12.5575 34.375 14.9375 34.375 C14.9375 35.695 14.9375 37.015 14.9375 38.375 C8.0075 38.375 1.0775 38.375 -6.0625 38.375 C-5.7325 37.055 -5.4025 35.735 -5.0625 34.375 C-2.4225 34.375 0.2175 34.375 2.9375 34.375 C3.02837891 33.03308594 3.02837891 33.03308594 3.12109375 31.6640625 C3.56834305 25.20991101 4.05296795 18.78441312 4.8515625 12.36328125 C5.06514821 10.16311371 5.06514821 10.16311371 3.9375 7.375 C0.71038665 5.76144333 -2.56362448 5.92577728 -6.0625 6.375 C-11.51397927 8.29453496 -14.25448738 11.31137069 -17.0625 16.375 C-17.91467393 19.4688223 -18.38183205 22.57319056 -18.8125 25.75 C-18.93753906 26.58144531 -19.06257813 27.41289063 -19.19140625 28.26953125 C-19.49521663 30.30272377 -19.78073878 32.33863481 -20.0625 34.375 C-17.7525 34.375 -15.4425 34.375 -13.0625 34.375 C-13.0625 35.695 -13.0625 37.015 -13.0625 38.375 C-19.9925 38.375 -26.9225 38.375 -34.0625 38.375 C-33.7325 37.055 -33.4025 35.735 -33.0625 34.375 C-30.4225 34.375 -27.7825 34.375 -25.0625 34.375 C-25.01351563 33.61058594 -24.96453125 32.84617187 -24.9140625 32.05859375 C-24.3119875 23.43231222 -23.28152595 14.93185209 -22.0625 6.375 C-25.0325 5.88 -25.0325 5.88 -28.0625 5.375 C-28.0625 4.055 -28.0625 2.735 -28.0625 1.375 C-24.1025 1.375 -20.1425 1.375 -16.0625 1.375 C-16.0625 3.355 -16.0625 5.335 -16.0625 7.375 C-15.340625 6.59125 -14.61875 5.8075 -13.875 5 C-9.53963418 0.95365857 -5.86403841 0.07413449 0 0 Z " fill="#0E0F10" transform="translate(1627.0625,1209.625)"/>
<path d="M0 0 C3.10855262 3.03083881 4.72517173 5.46188467 6.5 9.4375 C6.49584961 11.48144531 6.49584961 11.48144531 5.5 13.4375 C2.75610352 14.90136719 2.75610352 14.90136719 -0.87109375 16.234375 C-1.50862076 16.4728717 -2.14614777 16.71136841 -2.80299377 16.95709229 C-4.84265744 17.71551614 -6.88975792 18.4512062 -8.9375 19.1875 C-10.31366402 19.6978376 -11.68932255 20.2095405 -13.06445312 20.72265625 C-23.11454465 24.4375 -23.11454465 24.4375 -25.5 24.4375 C-22.25568909 28.93279472 -22.25568909 28.93279472 -17.5 31.4375 C-12.16971754 31.93104467 -9.14593015 30.97164372 -4.5 28.4375 C-3.51 28.4375 -2.52 28.4375 -1.5 28.4375 C-1.17 29.7575 -0.84 31.0775 -0.5 32.4375 C-7.0074173 36.92038747 -11.66118856 38.29524229 -19.5 37.4375 C-25.06008788 35.50720534 -28.88977912 31.65794175 -31.5 26.4375 C-32.19485935 19.03326105 -32.13491839 12.50897204 -27.5 6.4375 C-20.13538547 -1.38085855 -10.21604679 -4.56073517 0 0 Z M-23.88671875 10.1875 C-25.92910728 13.51265186 -26.5 15.49168441 -26.5 19.4375 C-17.62157015 17.00446874 -9.08594775 13.72913506 -0.5 10.4375 C-0.16848238 7.32476618 -0.16848238 7.32476618 -2.4375 5.25 C-10.08837851 0.72192905 -18.49689048 3.38568855 -23.88671875 10.1875 Z " fill="#0E0F10" transform="translate(1720.5,1211.5625)"/>
<path d="M0 0 C1.11246094 -0.01675781 2.22492188 -0.03351563 3.37109375 -0.05078125 C6.91042872 0.35210511 8.72440607 1.20008333 11.5625 3.3125 C14.43142573 6.97834954 15.79263279 9.77028349 16.5625 14.3125 C9.39730257 17.36122126 2.1864889 20.28210287 -5.0625 23.125 C-5.85640137 23.43896729 -6.65030273 23.75293457 -7.46826172 24.07641602 C-13.20260518 26.3125 -13.20260518 26.3125 -15.4375 26.3125 C-13.99712541 29.19324917 -13.00364732 30.98224739 -10.1875 32.625 C-3.89263764 34.19871559 -0.07884357 33.26138414 5.5625 30.3125 C6.5525 30.6425 7.5425 30.9725 8.5625 31.3125 C8.8925 32.3025 9.2225 33.2925 9.5625 34.3125 C3.22077911 38.78053063 -1.72327852 40.21185915 -9.4375 39.3125 C-15.2922367 37.51183406 -18.52283971 34.79206135 -21.4375 29.3125 C-23.58317518 22.87547445 -22.74387972 17.47888385 -19.84375 11.4921875 C-15.11769643 4.16680447 -8.64042416 0.02996679 0 0 Z M-11.296875 8.82421875 C-14.8206429 12.70559676 -16.39464203 16.20249595 -17.4375 21.3125 C-13.8452002 20.67556741 -10.55831759 19.7254328 -7.13671875 18.46484375 C-5.67202148 17.92827148 -5.67202148 17.92827148 -4.17773438 17.38085938 C-3.17033203 17.00767578 -2.16292969 16.63449219 -1.125 16.25 C0.41510742 15.68442383 0.41510742 15.68442383 1.98632812 15.10742188 C4.51293887 14.17903932 7.03825761 13.24729871 9.5625 12.3125 C8.24186087 8.25767334 8.00693162 7.53861433 4 5.5 C-1.46223065 3.61304759 -6.75874179 5.13460205 -11.296875 8.82421875 Z " fill="#0E0F10" transform="translate(1574.4375,1209.6875)"/>
<path d="M0 0 C3.07695141 3.07695141 5.24969972 6.30071562 6.5 10.5 C6.17 11.49 5.84 12.48 5.5 13.5 C2.75610352 14.8503418 2.75610352 14.8503418 -0.87109375 16.19921875 C-1.50862076 16.4391304 -2.14614777 16.67904205 -2.80299377 16.92622375 C-4.15190961 17.43150385 -5.50288981 17.9313016 -6.85571289 18.42602539 C-8.92974782 19.18466441 -10.99740524 19.95887792 -13.06445312 20.73632812 C-23.15796133 24.5 -23.15796133 24.5 -25.5 24.5 C-24.736875 25.469375 -23.97375 26.43875 -23.1875 27.4375 C-22.75824219 27.98277344 -22.32898437 28.52804687 -21.88671875 29.08984375 C-19.59067724 31.42469159 -17.37137302 31.5097077 -14.1875 31.75 C-10.45385569 31.73944208 -10.45385569 31.73944208 -7.3125 29.875 C-4.5 28.5 -4.5 28.5 -2.125 29.3125 C-1.58875 29.704375 -1.0525 30.09625 -0.5 30.5 C-1.5032953 33.73284041 -2.52601428 34.515175 -5.5 36.25 C-11.22075886 38.4236495 -17.0912651 38.36350874 -22.8125 36.3125 C-27.06647118 33.44354269 -29.84912189 31.03843916 -31.875 26.25 C-33.07248929 19.06506425 -32.25877707 13.42514879 -28.09765625 7.359375 C-20.85928376 -1.06474555 -10.54023774 -4.51724475 0 0 Z M-20.75 6.75 C-23.57331502 9.57331502 -25.07784367 11.78659181 -26.5 15.5 C-26.5 16.82 -26.5 18.14 -26.5 19.5 C-17.62157015 17.06696874 -9.08594775 13.79163506 -0.5 10.5 C-1.1517667 7.29394071 -1.1517667 7.29394071 -3.25 4.8125 C-9.5599991 1.13166719 -14.92066198 2.71430445 -20.75 6.75 Z " fill="#0E0F10" transform="translate(1506.5,1211.5)"/>
<path d="M0 0 C1.11246094 -0.01675781 2.22492188 -0.03351563 3.37109375 -0.05078125 C6.91042872 0.35210511 8.72440607 1.20008333 11.5625 3.3125 C14.43142573 6.97834954 15.79263279 9.77028349 16.5625 14.3125 C9.39730257 17.36122126 2.1864889 20.28210287 -5.0625 23.125 C-5.85640137 23.43896729 -6.65030273 23.75293457 -7.46826172 24.07641602 C-13.20260518 26.3125 -13.20260518 26.3125 -15.4375 26.3125 C-13.99712541 29.19324917 -13.00364732 30.98224739 -10.1875 32.625 C-3.89263764 34.19871559 -0.07884357 33.26138414 5.5625 30.3125 C6.5525 30.6425 7.5425 30.9725 8.5625 31.3125 C8.8925 32.3025 9.2225 33.2925 9.5625 34.3125 C3.22077911 38.78053063 -1.72327852 40.21185915 -9.4375 39.3125 C-15.2922367 37.51183406 -18.52283971 34.79206135 -21.4375 29.3125 C-23.58317518 22.87547445 -22.74387972 17.47888385 -19.84375 11.4921875 C-15.11769643 4.16680447 -8.64042416 0.02996679 0 0 Z M-11.296875 8.82421875 C-14.8206429 12.70559676 -16.39464203 16.20249595 -17.4375 21.3125 C-13.8452002 20.67556741 -10.55831759 19.7254328 -7.13671875 18.46484375 C-5.67202148 17.92827148 -5.67202148 17.92827148 -4.17773438 17.38085938 C-3.17033203 17.00767578 -2.16292969 16.63449219 -1.125 16.25 C0.41510742 15.68442383 0.41510742 15.68442383 1.98632812 15.10742188 C4.51293887 14.17903932 7.03825761 13.24729871 9.5625 12.3125 C8.24186087 8.25767334 8.00693162 7.53861433 4 5.5 C-1.46223065 3.61304759 -6.75874179 5.13460205 -11.296875 8.82421875 Z " fill="#0E0F10" transform="translate(1274.4375,1209.6875)"/>
<path d="M0 0 C1.11246094 -0.01675781 2.22492187 -0.03351563 3.37109375 -0.05078125 C6.91042872 0.35210511 8.72440607 1.20008333 11.5625 3.3125 C14.43142573 6.97834954 15.79263279 9.77028349 16.5625 14.3125 C9.39730257 17.36122126 2.1864889 20.28210287 -5.0625 23.125 C-5.85640137 23.43896729 -6.65030273 23.75293457 -7.46826172 24.07641602 C-13.20260518 26.3125 -13.20260518 26.3125 -15.4375 26.3125 C-13.99712541 29.19324917 -13.00364732 30.98224739 -10.1875 32.625 C-3.89263764 34.19871559 -0.07884357 33.26138414 5.5625 30.3125 C6.5525 30.6425 7.5425 30.9725 8.5625 31.3125 C8.8925 32.3025 9.2225 33.2925 9.5625 34.3125 C3.22077911 38.78053063 -1.72327852 40.21185915 -9.4375 39.3125 C-15.2922367 37.51183406 -18.52283971 34.79206135 -21.4375 29.3125 C-23.58317518 22.87547445 -22.74387972 17.47888385 -19.84375 11.4921875 C-15.11769643 4.16680447 -8.64042416 0.02996679 0 0 Z M-11.296875 8.82421875 C-14.8206429 12.70559676 -16.39464203 16.20249595 -17.4375 21.3125 C-13.8452002 20.67556741 -10.55831759 19.7254328 -7.13671875 18.46484375 C-5.67202148 17.92827148 -5.67202148 17.92827148 -4.17773438 17.38085938 C-3.17033203 17.00767578 -2.16292969 16.63449219 -1.125 16.25 C0.41510742 15.68442383 0.41510742 15.68442383 1.98632812 15.10742188 C4.51293887 14.17903932 7.03825761 13.24729871 9.5625 12.3125 C8.24186087 8.25767334 8.00693162 7.53861433 4 5.5 C-1.46223065 3.61304759 -6.75874179 5.13460205 -11.296875 8.82421875 Z " fill="#0E0F10" transform="translate(1001.4375,1209.6875)"/>
<path d="M0 0 C8.09055587 1.1939857 15.14861888 3.88190394 22.625 7.125 C24.27435547 7.82689453 24.27435547 7.82689453 25.95703125 8.54296875 C28.64176107 9.68689711 31.3224743 10.83933386 34 12 C33.27702566 15.94006498 32.14503591 19.17851333 30.4375 22.8125 C29.98246094 23.78832031 29.52742188 24.76414062 29.05859375 25.76953125 C28.53458984 26.87361328 28.53458984 26.87361328 28 28 C21.46355039 25.90165959 15.0640323 23.54106006 8.6875 21 C7.80771484 20.65710937 6.92792969 20.31421875 6.02148438 19.9609375 C5.17263672 19.62320312 4.32378906 19.28546875 3.44921875 18.9375 C2.68955811 18.63714844 1.92989746 18.33679687 1.1472168 18.02734375 C-1.1521076 16.92722356 -3.01449854 15.58997763 -5 14 C-4.34493927 8.92327933 -2.1300871 4.59081459 0 0 Z " fill="#F09E66" transform="translate(259,1191)"/>
<path d="M0 0 C1.2375 0.04125 2.475 0.0825 3.75 0.125 C3.546875 2.0078125 3.546875 2.0078125 2.75 4.125 C0.640625 5.1796875 0.640625 5.1796875 -2 6 C-8.61153101 8.43334522 -10.88871964 11.25118591 -13.9375 17.6875 C-15.86580286 23.30806457 -16.48947316 29.25552224 -17.25 35.125 C-13.29 35.455 -9.33 35.785 -5.25 36.125 C-5.58 37.775 -5.91 39.425 -6.25 41.125 C-10.21 41.125 -14.17 41.125 -18.25 41.125 C-19.57 50.695 -20.89 60.265 -22.25 70.125 C-19.28 70.125 -16.31 70.125 -13.25 70.125 C-13.58 71.445 -13.91 72.765 -14.25 74.125 C-20.85 74.125 -27.45 74.125 -34.25 74.125 C-34.25 72.805 -34.25 71.485 -34.25 70.125 C-31.94 70.125 -29.63 70.125 -27.25 70.125 C-27.17652344 68.74441406 -27.17652344 68.74441406 -27.1015625 67.3359375 C-26.57982037 58.50230345 -25.63814129 49.87163783 -24.25 41.125 C-25.9 41.125 -27.55 41.125 -29.25 41.125 C-29.25 39.475 -29.25 37.825 -29.25 36.125 C-27.27 36.125 -25.29 36.125 -23.25 36.125 C-23.07984375 34.84625 -22.9096875 33.5675 -22.734375 32.25 C-22.49031248 30.54156234 -22.24547964 28.83323461 -22 27.125 C-21.83564453 25.86623047 -21.83564453 25.86623047 -21.66796875 24.58203125 C-20.54194855 16.93694671 -18.41578405 10.28378464 -12.25 5.25 C-11.59 4.69570312 -10.93 4.14140625 -10.25 3.5703125 C-6.7859483 1.06699389 -4.31257653 -0.14375255 0 0 Z " fill="#0E0F10" transform="translate(1476.25,1173.875)"/>
<path d="M0 0 C1.2375 0.04125 2.475 0.0825 3.75 0.125 C3.546875 2.0078125 3.546875 2.0078125 2.75 4.125 C0.640625 5.1796875 0.640625 5.1796875 -2 6 C-8.61153101 8.43334522 -10.88871964 11.25118591 -13.9375 17.6875 C-15.86580286 23.30806457 -16.48947316 29.25552224 -17.25 35.125 C-13.29 35.455 -9.33 35.785 -5.25 36.125 C-5.58 37.775 -5.91 39.425 -6.25 41.125 C-10.21 41.125 -14.17 41.125 -18.25 41.125 C-19.57 50.695 -20.89 60.265 -22.25 70.125 C-19.28 70.125 -16.31 70.125 -13.25 70.125 C-13.58 71.445 -13.91 72.765 -14.25 74.125 C-20.85 74.125 -27.45 74.125 -34.25 74.125 C-34.25 72.805 -34.25 71.485 -34.25 70.125 C-31.94 70.125 -29.63 70.125 -27.25 70.125 C-27.17652344 68.74441406 -27.17652344 68.74441406 -27.1015625 67.3359375 C-26.57982037 58.50230345 -25.63814129 49.87163783 -24.25 41.125 C-25.9 41.125 -27.55 41.125 -29.25 41.125 C-29.25 39.475 -29.25 37.825 -29.25 36.125 C-27.27 36.125 -25.29 36.125 -23.25 36.125 C-23.07984375 34.84625 -22.9096875 33.5675 -22.734375 32.25 C-22.49031248 30.54156234 -22.24547964 28.83323461 -22 27.125 C-21.83564453 25.86623047 -21.83564453 25.86623047 -21.66796875 24.58203125 C-20.54194855 16.93694671 -18.41578405 10.28378464 -12.25 5.25 C-11.59 4.69570312 -10.93 4.14140625 -10.25 3.5703125 C-6.7859483 1.06699389 -4.31257653 -0.14375255 0 0 Z " fill="#0E0F10" transform="translate(1446.25,1173.875)"/>
<path d="M0 0 C1.62109375 0.828125 1.62109375 0.828125 3.80859375 2.328125 C3.47859375 5.958125 3.14859375 9.588125 2.80859375 13.328125 C1.15859375 13.328125 -0.49140625 13.328125 -2.19140625 13.328125 C-2.19140625 11.018125 -2.19140625 8.708125 -2.19140625 6.328125 C-5.90345112 4.47210256 -10.14013675 4.87936899 -14.19140625 5.328125 C-18.56012933 7.51248654 -21.67351836 10.13164518 -24.19140625 14.328125 C-25.39952715 18.79651737 -25.52340319 22.27354649 -24.12890625 26.703125 C-21.68879889 30.0090769 -20.12157821 31.09084864 -16.19140625 32.328125 C-13.12261507 32.31188801 -10.20429996 31.88750416 -7.19140625 31.328125 C-6.18078125 31.1425 -5.17015625 30.956875 -4.12890625 30.765625 C-3.16984375 30.5490625 -3.16984375 30.5490625 -2.19140625 30.328125 C-1.53140625 31.648125 -0.87140625 32.968125 -0.19140625 34.328125 C-6.17243881 37.49538574 -11.37697338 39.52427545 -18.19140625 38.328125 C-23.50408669 36.56665117 -27.12623231 34.10979634 -30.19140625 29.328125 C-32.27589156 23.07466907 -31.90885376 17.10877898 -29.25390625 11.078125 C-23.51254808 0.60179615 -11.28249636 -3.4591611 0 0 Z " fill="#0E0F10" transform="translate(1681.19140625,1210.671875)"/>
<path d="M0 0 C-0.33 1.65 -0.66 3.3 -1 5 C-1.59167969 5.17015625 -2.18335938 5.3403125 -2.79296875 5.515625 C-7.58363986 6.98486834 -11.42740095 8.31914037 -15 12 C-17.17205757 16.40192655 -17.83698906 21.01608649 -18.625 25.8125 C-18.7590625 26.60076172 -18.893125 27.38902344 -19.03125 28.20117188 C-19.3591229 30.13328006 -19.68024237 32.0665322 -20 34 C-17.69 34 -15.38 34 -13 34 C-13 35.32 -13 36.64 -13 38 C-19.6 38 -26.2 38 -33 38 C-33 36.68 -33 35.36 -33 34 C-30.36 34 -27.72 34 -25 34 C-24.87882812 32.74445313 -24.75765625 31.48890625 -24.6328125 30.1953125 C-23.78954377 21.69560483 -22.91391334 13.33919382 -21 5 C-23.31 5 -25.62 5 -28 5 C-28 3.68 -28 2.36 -28 1 C-24.04 1 -20.08 1 -16 1 C-16 2.98 -16 4.96 -16 7 C-15.0925 6.21625 -14.185 5.4325 -13.25 4.625 C-8.72764537 0.89511406 -6.00256594 -0.27284391 0 0 Z " fill="#0E0F10" transform="translate(1549,1210)"/>
<path d="M0 0 C4.29 0 8.58 0 13 0 C12.4524358 4.21803274 11.90098775 8.43553399 11.34594727 12.65258789 C11.1577056 14.08701856 10.97052279 15.5215886 10.78442383 16.95629883 C10.51662518 19.01941959 10.24501287 21.08200788 9.97265625 23.14453125 C9.81031494 24.38565674 9.64797363 25.62678223 9.48071289 26.90551758 C9 30 9 30 8 33 C10.31 33 12.62 33 15 33 C15 34.32 15 35.64 15 37 C8.4 37 1.8 37 -5 37 C-5 35.68 -5 34.36 -5 33 C-2.36 33 0.28 33 3 33 C3.03738281 32.33097656 3.07476563 31.66195313 3.11328125 30.97265625 C3.73813537 21.84488533 5.30882033 12.97707949 7 4 C4.36 4 1.72 4 -1 4 C-0.67 2.68 -0.34 1.36 0 0 Z " fill="#0E0F10" transform="translate(956,1211)"/>
<path d="M0 0 C4.29 0 8.58 0 13 0 C11.66666667 10.66666667 10.33333333 21.33333333 9 32 C12.465 32.495 12.465 32.495 16 33 C15.67 34.32 15.34 35.64 15 37 C8.4 37 1.8 37 -5 37 C-5 35.68 -5 34.36 -5 33 C-2.36 33 0.28 33 3 33 C3.08564209 32.29915283 3.17128418 31.59830566 3.25952148 30.8762207 C3.65022487 27.68807056 4.04383321 24.50028553 4.4375 21.3125 C4.57220703 20.20970703 4.70691406 19.10691406 4.84570312 17.97070312 C4.97783203 16.90400391 5.10996094 15.83730469 5.24609375 14.73828125 C5.36654053 13.75899658 5.4869873 12.77971191 5.61108398 11.77075195 C5.97847425 9.1533558 6.45323877 6.58525217 7 4 C4.69 4 2.38 4 0 4 C0 2.68 0 1.36 0 0 Z " fill="#0F1010" transform="translate(1391,1211)"/>
<path d="M0 0 C3.63 0 7.26 0 11 0 C11.09765625 8.49609375 11.09765625 8.49609375 11 11 C10 12 10 12 7.96875 12.1328125 C7.1540625 12.13023438 6.339375 12.12765625 5.5 12.125 C4.6853125 12.12757812 3.870625 12.13015625 3.03125 12.1328125 C1 12 1 12 0 11 C-0.14310287 7.3308423 -0.04221662 3.67284559 0 0 Z " fill="#0E0F10" transform="translate(1493,1070)"/>
<path d="M0 0 C1.65 0.33 3.3 0.66 5 1 C5.625 2.875 5.625 2.875 6 5 C4 7 4 7 1.375 7.125 C0.59125 7.08375 -0.1925 7.0425 -1 7 C-1.625 5.1875 -1.625 5.1875 -2 3 C-1.34 2.01 -0.68 1.02 0 0 Z " fill="#0D0E0F" transform="translate(966,1194)"/>
<path d="M0 0 C-0.33 1.98 -0.66 3.96 -1 6 C-2.98 6 -4.96 6 -7 6 C-7 4.02 -7 2.04 -7 0 C-4.3333581 -1.33332095 -2.83319697 -0.67102033 0 0 Z " fill="#0D0E0F" transform="translate(1407,1195)"/>
<path d="" fill="#F3A264" transform="translate(0,0)"/>
<path d="" fill="#F5A366" transform="translate(0,0)"/>
<path d="" fill="#F29D62" transform="translate(0,0)"/>
</svg>
